<?xml version="1.0" standalone="yes"?>

<svg version="1.1" viewBox="0.0 0.0 300.0 300.0" fill="none" stroke="none" stroke-linecap="square" stroke-miterlimit="10" xmlns="http://www.w3.org/2000/svg" xmlns:xlink="http://www.w3.org/1999/xlink"><clipPath id="ge726c1aff_0_0.0"><path d="m0 0l300.0 0l0 300.0l-300.0 0l0 -300.0z" clip-rule="nonzero"></path></clipPath><g clip-path="url(#ge726c1aff_0_0.0)"><path fill="#000000" fill-opacity="0.0" d="m0 0l300.0 0l0 300.0l-300.0 0z" fill-rule="nonzero"></path><path fill="#efefef" d="m0 150.0l0 0c0 -82.84271 67.15729 -150.0 150.0 -150.0l0 0c39.78247 0 77.93556 15.803526 106.06601 43.933983c28.130463 28.130455 43.93399 66.28355 43.93399 106.06602l0 0c0 82.84271 -67.15729 150.0 -150.0 150.0l0 0c-82.84271 0 -150.0 -67.15729 -150.0 -150.0z" fill-rule="nonzero"></path><path fill="#b7b7b7" d="m42.614403 141.4924l0 0c-0.69885254 -11.31282 8.994232 -21.10569 21.650108 -21.873001l0 0c12.655876 -0.7673111 23.482025 7.781502 24.180878 19.094315l0 0c0.69886017 11.31282 -8.994225 21.105682 -21.650108 21.873001l0 0c-12.655876 0.7673187 -23.482025 -7.7815094 -24.180878 -19.094315z" fill-rule="nonzero"></path><path stroke="#000000" stroke-width="1.0" stroke-linejoin="round" stroke-linecap="butt" stroke-opacity="0.0" d="m42.614403 141.4924l0 0c-0.69885254 -11.31282 8.994232 -21.10569 21.650108 -21.873001l0 0c12.655876 -0.7673111 23.482025 7.781502 24.180878 19.094315l0 0c0.69886017 11.31282 -8.994225 21.105682 -21.650108 21.873001l0 0c-12.655876 0.7673187 -23.482025 -7.7815094 -24.180878 -19.094315z" fill-rule="nonzero"></path><path fill="#ff3600" d="m105.0557 45.219055l0 0c-0.68865204 -11.186611 8.14843 -20.823978 19.738174 -21.525665l0 0c5.56559 -0.33696365 11.034599 1.4738941 15.203911 5.0342045c4.1693115 3.5603085 6.6973877 8.578428 7.0280914 13.950426l0 0c0.6886444 11.186611 -8.1484375 20.823978 -19.738174 21.52567l0 0c-11.589745 0.70168304 -21.54335 -7.798023 -22.232002 -18.984634z" fill-rule="nonzero"></path><path stroke="#000000" stroke-width="1.0" stroke-linejoin="round" stroke-linecap="butt" stroke-opacity="0.0" d="m105.0557 45.219055l0 0c-0.68865204 -11.186611 8.14843 -20.823978 19.738174 -21.525665l0 0c5.56559 -0.33696365 11.034599 1.4738941 15.203911 5.0342045c4.1693115 3.5603085 6.6973877 8.578428 7.0280914 13.950426l0 0c0.6886444 11.186611 -8.1484375 20.823978 -19.738174 21.52567l0 0c-11.589745 0.70168304 -21.54335 -7.798023 -22.232002 -18.984634z" fill-rule="nonzero"></path><path fill="#ff79ee" d="m72.50762 164.62111l0 0c-0.74476624 -12.00441 8.737419 -22.345657 21.179054 -23.097824l0 0c5.974678 -0.36120605 11.846733 1.5824127 16.324364 5.4032745c4.4776306 3.8208618 7.194069 9.205994 7.551712 14.970703l0 0c0.74476624 12.00441 -8.737419 22.345642 -21.179047 23.097824l0 0c-12.441635 0.75216675 -23.131317 -8.369583 -23.876083 -20.373978z" fill-rule="nonzero"></path><path stroke="#000000" stroke-width="1.0" stroke-linejoin="round" stroke-linecap="butt" stroke-opacity="0.0" d="m72.50762 164.62111l0 0c-0.74476624 -12.00441 8.737419 -22.345657 21.179054 -23.097824l0 0c5.974678 -0.36120605 11.846733 1.5824127 16.324364 5.4032745c4.4776306 3.8208618 7.194069 9.205994 7.551712 14.970703l0 0c0.74476624 12.00441 -8.737419 22.345642 -21.179047 23.097824l0 0c-12.441635 0.75216675 -23.131317 -8.369583 -23.876083 -20.373978z" fill-rule="nonzero"></path><path fill="#ffd200" d="m62.23005 62.428963l0 0c-0.7702675 -12.504166 9.332207 -23.29147 22.564514 -24.09412l0 0c6.3543777 -0.38544464 12.595436 1.6302567 17.350212 5.6036797c4.7547836 3.9734192 7.6337967 9.579079 8.003693 15.58379l0 0c0.7702637 12.504169 -9.332207 23.29147 -22.564514 24.09412l0 0c-13.232307 0.80265045 -24.583633 -8.683304 -25.353905 -21.18747z" fill-rule="nonzero"></path><path stroke="#000000" stroke-width="1.0" stroke-linejoin="round" stroke-linecap="butt" stroke-opacity="0.0" d="m62.23005 62.428963l0 0c-0.7702675 -12.504166 9.332207 -23.29147 22.564514 -24.09412l0 0c6.3543777 -0.38544464 12.595436 1.6302567 17.350212 5.6036797c4.7547836 3.9734192 7.6337967 9.579079 8.003693 15.58379l0 0c0.7702637 12.504169 -9.332207 23.29147 -22.564514 24.09412l0 0c-13.232307 0.80265045 -24.583633 -8.683304 -25.353905 -21.18747z" fill-rule="nonzero"></path><path fill="#06c1b6" d="m36.850506 100.756195l0 0c-0.80597687 -13.0190735 9.511532 -24.240166 23.044804 -25.063011l0 0c6.498909 -0.3951416 12.885384 1.7094879 17.754486 5.8508987c4.8691025 4.141411 7.8219757 9.980354 8.2090225 16.232338l0 0c0.80597687 13.0190735 -9.511536 24.240158 -23.044807 25.063004l0 0c-13.533272 0.8228378 -25.157528 -9.064156 -25.963505 -22.08323z" fill-rule="nonzero"></path><path stroke="#000000" stroke-width="1.0" stroke-linejoin="round" stroke-linecap="butt" stroke-opacity="0.0" d="m36.850506 100.756195l0 0c-0.80597687 -13.0190735 9.511532 -24.240166 23.044804 -25.063011l0 0c6.498909 -0.3951416 12.885384 1.7094879 17.754486 5.8508987c4.8691025 4.141411 7.8219757 9.980354 8.2090225 16.232338l0 0c0.80597687 13.0190735 -9.511536 24.240158 -23.044807 25.063004l0 0c-13.533272 0.8228378 -25.157528 -9.064156 -25.963505 -22.08323z" fill-rule="nonzero"></path><path fill="#9fe413" d="m109.8338 174.4909l0 0c-0.5866318 -9.46521 7.390312 -17.64981 17.817001 -18.280823l0 0c10.426697 -0.63101196 19.354752 6.5305176 19.941376 15.995712l0 0c0.5866394 9.46521 -7.39032 17.64981 -17.817001 18.280823l0 0c-10.426689 0.63101196 -19.354744 -6.5305023 -19.941376 -15.995712z" fill-rule="nonzero"></path><path stroke="#000000" stroke-width="1.0" stroke-linejoin="round" stroke-linecap="butt" stroke-opacity="0.0" d="m109.8338 174.4909l0 0c-0.5866318 -9.46521 7.390312 -17.64981 17.817001 -18.280823l0 0c10.426697 -0.63101196 19.354752 6.5305176 19.941376 15.995712l0 0c0.5866394 9.46521 -7.39032 17.64981 -17.817001 18.280823l0 0c-10.426689 0.63101196 -19.354744 -6.5305023 -19.941376 -15.995712z" fill-rule="nonzero"></path><path fill="#000000" fill-opacity="0.0" d="m138.09319 48.2061l-63.85489 14.448181" fill-rule="nonzero"></path><path stroke="#666666" stroke-width="1.0" stroke-linejoin="round" stroke-linecap="butt" d="m138.09319 48.2061l-63.85489 14.448181" fill-rule="nonzero"></path><path fill="#000000" fill-opacity="0.0" d="m64.26559 138.44968l-5.6580315 -42.36786" fill-rule="nonzero"></path><path stroke="#666666" stroke-width="1.0" stroke-linejoin="round" stroke-linecap="butt" d="m64.26559 138.44968l-5.6580315 -42.36786" fill-rule="nonzero"></path><path fill="#000000" fill-opacity="0.0" d="m90.36661 163.03796l39.70723 12.494812" fill-rule="nonzero"></path><path stroke="#666666" stroke-width="1.0" stroke-linejoin="round" stroke-linecap="butt" d="m90.36661 163.03796l39.70723 12.494812" fill-rule="nonzero"></path><path fill="#9329cd" d="m165.99377 188.61504l0 0c-1.3062439 -8.54837 4.965683 -16.58612 14.008728 -17.95282l0 0c4.342636 -0.65631104 8.756577 0.34500122 12.270828 2.7836456c3.514267 2.4386444 5.8409576 6.114868 6.468231 10.21994l0 0c1.3062439 8.54837 -4.9656677 16.58612 -14.008728 17.95282l0 0c-9.043045 1.366684 -17.432816 -4.4552155 -18.73906 -13.003586z" fill-rule="nonzero"></path><path fill="#ff79ee" d="m208.69223 65.000465l0 0c-1.6770477 -10.948353 6.159973 -21.212711 17.504456 -22.926079l0 0c5.447815 -0.82278824 10.992432 0.4766922 15.414078 3.612564c4.421646 3.1358757 7.358139 7.8512764 8.163483 13.10886l0 0c1.6770477 10.94836 -6.159973 21.212711 -17.50447 22.926083l0 0c-11.344482 1.7133713 -21.900513 -5.7730713 -23.577545 -16.721428z" fill-rule="nonzero"></path><path fill="#b7b7b7" d="m153.23843 81.02085l0 0c-1.6965332 -11.096321 6.989929 -21.609425 19.401764 -23.481667l0 0c12.411835 -1.872242 23.848938 5.6053505 25.545471 16.701675l0 0c1.6965332 11.096321 -6.989929 21.60942 -19.401764 23.481667l0 0c-12.41185 1.8722382 -23.848938 -5.6053543 -25.545471 -16.701675z" fill-rule="nonzero"></path><path fill="#06c1b6" d="m186.94838 68.150314l0 0c-1.3544312 -8.852669 5.0031586 -17.153011 14.2000885 -18.539337l0 0c4.416519 -0.66573715 8.910522 0.3845787 12.493393 2.9198875c3.5828705 2.535305 5.9611053 6.347927 6.6115265 10.599129l0 0c1.3544312 8.852673 -5.0031586 17.153011 -14.2000885 18.539341l0 0c-9.196915 1.386322 -17.750488 -4.6663513 -19.10492 -13.51902z" fill-rule="nonzero"></path><path fill="#ffd200" d="m155.56537 117.760216l0 0c-1.5613556 -10.196167 6.273178 -19.839584 17.498917 -21.539185l0 0c11.225723 -1.6996002 21.591705 5.1882324 23.153046 15.384392l0 0c1.5613556 10.196167 -6.273178 19.839584 -17.498901 21.539185l0 0c-11.225739 1.6996002 -21.591705 -5.188225 -23.15306 -15.384392z" fill-rule="nonzero"></path><path fill="#ff3600" d="m159.93585 155.52693l0 0c-1.6150513 -10.526474 5.912613 -20.394623 16.813507 -22.041122l0 0c5.234787 -0.7906647 10.563278 0.45913696 14.813248 3.474472c4.2499695 3.015335 7.073303 7.5491943 7.848877 12.604187l0 0c1.6150513 10.526489 -5.912613 20.394638 -16.813507 22.041122l0 0c-10.900894 1.6464996 -21.047073 -5.55217 -22.662125 -16.07866z" fill-rule="nonzero"></path><path fill="#9fe413" d="m186.1207 133.61157l0 0c-1.2757263 -8.348366 5.145691 -16.239883 14.342606 -17.626205l0 0c9.19693 -1.386322 17.686676 4.2575226 18.962387 12.605881l0 0c1.275711 8.348358 -5.145691 16.239883 -14.342621 17.626205l0 0c-9.196915 1.386322 -17.68666 -4.2575226 -18.962372 -12.605881z" fill-rule="nonzero"></path><path fill="#ff9c23" d="m214.27187 128.35988l0 0c-1.001297 -6.5569763 4.0403748 -12.754761 11.2608795 -13.843155l0 0c7.2205048 -1.0883865 13.88559 3.3447723 14.886887 9.901741l0 0c1.001297 6.5569687 -4.0403748 12.754753 -11.2608795 13.843147l0 0c-7.2205048 1.0883942 -13.88559 -3.3447723 -14.886887 -9.901733z" fill-rule="nonzero"></path><path fill="#000000" fill-opacity="0.0" d="m170.98367 123.85765l-3.1669617 -40.836456" fill-rule="nonzero"></path><path stroke="#595959" stroke-width="1.0" stroke-linejoin="round" stroke-linecap="butt" d="m170.98367 123.85765l-3.1669617 -40.836456" fill-rule="nonzero"></path><path fill="#000000" fill-opacity="0.0" d="m173.64929 73.89186l60.558 -18.621914" fill-rule="nonzero"></path><path stroke="#595959" stroke-width="1.0" stroke-linejoin="round" stroke-linecap="butt" d="m173.64929 73.89186l60.558 -18.621914" fill-rule="nonzero"></path><path fill="#000000" fill-opacity="0.0" d="m180.09622 152.93164l2.8801727 38.867615" fill-rule="nonzero"></path><path stroke="#595959" stroke-width="1.0" stroke-linejoin="round" stroke-linecap="butt" d="m180.09622 152.93164l2.8801727 38.867615" fill-rule="nonzero"></path><path fill="#000000" fill-opacity="0.0" d="m227.03607 126.85545l-30.705048 4.784317" fill-rule="nonzero"></path><path stroke="#595959" stroke-width="1.0" stroke-linejoin="round" stroke-linecap="butt" d="m227.03607 126.85545l-30.705048 4.784317" fill-rule="nonzero"></path><path fill="#000000" fill-opacity="0.0" d="m51.93986 233.92882l208.62993 -11.212601l1.5433044 28.53543l-208.62993 11.212585z" fill-rule="nonzero"></path><path fill="#06c1b6" d="m76.274895 230.27176l159.70648 -8.583267l1.8091583 33.45111l-159.70648 8.583267l-1.809166 -33.45111z" fill-rule="nonzero"></path><path fill="#ffffff" d="m79.65835 238.72736l11.592644 -0.6230316l0.181427 3.354477l-7.629616 0.41004944l0.22023773 4.072174l6.490631 -0.34883118l0.18058014 3.3388672l-6.490631 0.34883118l0.36875153 6.818161l-3.963028 0.21298218l-0.9509964 -17.58368zm16.401314 3.3433685l3.2453156 -0.17440796l0.48545074 2.899994l0.07801056 -0.004196167q0.90911865 -1.707489 2.2546997 -2.577835q1.3611908 -0.8711853 2.9838486 -0.9583893q0.88934326 -0.047790527 1.4430237 0.0632782q0.56843567 0.09463501 1.1765213 0.3435974l-0.63243866 3.3512726q-0.63422394 -0.15368652 -1.1385651 -0.22045898q-0.5043411 -0.06678772 -1.2532654 -0.026535034q-1.2325974 0.06625366 -2.3943253 0.8641205q-1.1625748 0.78227234 -1.9384308 2.6390839l0.3763504 6.9585724l-3.9630356 0.21299744l-0.7231598 -13.371094zm15.010742 8.879105q-0.06159973 -1.1389618 0.37651062 -2.0074768q0.45287323 -0.88494873 1.4817734 -1.5348663q1.0289078 -0.64990234 2.6789627 -1.098465q1.6492157 -0.46418762 4.014038 -0.7164612q-0.14339447 -0.9154968 -0.87335205 -1.3926392q-0.71435547 -0.4779663 -2.0873795 -0.4041748q-0.9673538 0.051986694 -1.9317474 0.44805908q-0.964386 0.3960724 -2.0729904 1.0189667l-1.5287018 -2.515335q1.3308334 -0.8538971 2.8788376 -1.4534607q1.5480042 -0.5995636 3.2642746 -0.691803q2.8084488 -0.15093994 4.4956665 1.2449036q1.7028198 1.394989 1.8690567 4.468628l0.4143219 7.660675l-3.229721 0.17358398l-0.3782959 -1.4974823l-0.10921478 0.005874634q-0.9719696 0.83461 -2.1602783 1.4304962q-1.1883011 0.595871 -2.483307 0.66548157q-1.0297623 0.055343628 -1.8579712 -0.21310425q-0.8125992 -0.26927185 -1.419426 -0.7843323q-0.59207153 -0.53149414 -0.9429321 -1.2324219q-0.35170746 -0.7165222 -0.3981247 -1.574646zm3.7909775 -0.50105286q0.034599304 0.6396942 0.55075073 0.9249115q0.51615906 0.28520203 1.3742905 0.23908997q0.88934326 -0.047805786 1.6500626 -0.44857788q0.77547455 -0.41722107 1.4332886 -0.9845886l-0.11981964 -2.2155151q-1.4780197 0.15766907 -2.4352417 0.3968811q-0.9572296 0.2392273 -1.5193329 0.5510864q-0.54650116 0.31103516 -0.7594452 0.7136688q-0.19818115 0.3861847 -0.17455292 0.8230438zm14.883354 -7.0745544l-3.3701324 0.18112183l-0.15948486 -2.9488068l3.5489197 -0.34721375l0.3224945 -3.5849762l3.2609253 -0.17524719l0.19238281 3.5572968l5.6637115 -0.30439758l0.16792297 3.1048431l-5.6637115 0.30439758l0.25315857 4.680649q0.08352661 1.5446167 0.789032 2.1482544q0.70466614 0.58802795 2.1557007 0.5100403q0.79571533 -0.042755127 1.4286652 -0.20195007q0.6321106 -0.17480469 1.2131958 -0.4250946l0.85653687 2.817459q-0.875 0.31303406 -1.9545135 0.6057739q-1.0795288 0.2927246 -2.374527 0.36231995q-1.5758514 0.08470154 -2.7072601 -0.29263306q-1.1313934 -0.37731934 -1.8592529 -1.1049347q-0.7278595 -0.72761536 -1.0825348 -1.7882385q-0.35466003 -1.0606079 -0.4263916 -2.386795l-0.25483704 -4.7118683zm12.949768 2.8873138q-0.08859253 -1.6382294 0.4186554 -2.9642334q0.5072632 -1.326004 1.4256744 -2.2829285q0.93400574 -0.9577484 2.1560516 -1.5085144q1.2220459 -0.55075073 2.5794525 -0.623703q1.5290527 -0.08216858 2.7409973 0.33776855q1.2119446 0.41993713 2.039322 1.2517395q0.84213257 0.8153534 1.2954865 1.9645538q0.46894836 1.1483612 0.5432129 2.5213623q0.029525757 0.5460663 0.008880615 1.0322571q-0.020645142 0.48617554 -0.06956482 0.73916626l-9.0026245 0.48384094q0.3002777 1.5016785 1.4279022 2.0982666q1.1276093 0.5966034 2.609848 0.51693726q0.9205475 -0.049468994 1.7200623 -0.31150818q0.81427 -0.2784729 1.678299 -0.79434204l1.424118 2.3175354q-1.100174 0.7789154 -2.4816132 1.27565q-1.3658295 0.49588013 -2.7232513 0.5688324q-1.5602417 0.083862305 -2.942978 -0.31124878q-1.367981 -0.41156006 -2.4154816 -1.2628174q-1.0475006 -0.8512573 -1.693985 -2.0996246q-0.6473236 -1.2639465 -0.73846436 -2.9489899zm9.579468 -1.9700623q-0.060760498 -1.123352 -0.7228241 -1.7919159q-0.66207886 -0.6685486 -2.0350952 -0.5947571q-1.0765686 0.057861328 -1.8853455 0.7272186q-0.7940216 0.65293884 -0.9892273 1.9621735l5.632492 -0.30271912zm7.668289 -5.6540527l3.2453156 -0.17440796l0.48545837 2.899994l0.07800293 -0.004196167q0.90911865 -1.707489 2.2546997 -2.577835q1.3611908 -0.8711853 2.983841 -0.9583893q0.88934326 -0.047790527 1.4430237 0.0632782q0.5684509 0.09461975 1.1765289 0.3435974l-0.63243103 3.3512726q-0.63423157 -0.15368652 -1.1385803 -0.22045898q-0.5043335 -0.06678772 -1.2532501 -0.026535034q-1.232605 0.06625366 -2.394333 0.8641205q-1.1625671 0.78227234 -1.9384308 2.6390839l0.37634277 6.9585724l-3.963028 0.21299744l-0.7231598 -13.371094zm14.784866 -0.7945862l3.2453156 -0.17442322l0.39263916 1.7627258l0.10922241 -0.005874634q0.8117218 -0.90423584 1.8857422 -1.5878601q1.0896301 -0.6844635 2.6030579 -0.7658081q2.2623596 -0.12158203 3.3870544 1.2888336q1.1394348 1.3939819 1.2761383 3.9215393l0.44639587 8.253571l-3.9630432 0.21298218l-0.41853333 -7.738693q-0.0725708 -1.3417816 -0.54319763 -1.9423981q-0.4550171 -0.6014404 -1.5627899 -0.54190063q-0.8113251 0.04359436 -1.4004059 0.43515015q-0.5899353 0.3759613 -1.2540741 1.1157837l0.48266602 8.924454l-3.963028 0.21299744l-0.7231598 -13.3710785zm15.8793335 5.8437195q-0.08859253 -1.6382294 0.4186554 -2.9642334q0.5072632 -1.326004 1.4256744 -2.2829285q0.93400574 -0.9577484 2.1560516 -1.5084991q1.2220459 -0.55075073 2.5794525 -0.623703q1.5290527 -0.08218384 2.7409973 0.3377533q1.2119446 0.41993713 2.039322 1.2517395q0.84213257 0.8153534 1.2954865 1.9645538q0.46894836 1.1483612 0.5432129 2.5213623q0.029525757 0.5460663 0.008880615 1.0322571q-0.020645142 0.4861908 -0.06956482 0.73916626l-9.0026245 0.48384094q0.3002777 1.5016785 1.4279022 2.0982666q1.1276093 0.5966034 2.609848 0.51693726q0.9205475 -0.049468994 1.7200623 -0.31150818q0.81427 -0.2784729 1.678299 -0.79434204l1.424118 2.3175354q-1.100174 0.7789154 -2.4816132 1.27565q-1.3658295 0.4958954 -2.7232513 0.56884766q-1.5602417 0.083847046 -2.942978 -0.31126404q-1.3679657 -0.41156006 -2.4154816 -1.2628174q-1.0475006 -0.8512573 -1.693985 -2.0996094q-0.6473236 -1.2639618 -0.73846436 -2.9490051zm9.579468 -1.970047q-0.060760498 -1.1233673 -0.7228241 -1.7919159q-0.66207886 -0.66856384 -2.0350952 -0.59477234q-1.0765686 0.057861328 -1.8853455 0.7272339q-0.7940216 0.6529236 -0.9892273 1.9621582l5.632492 -0.30270386zm5.9185333 -11.099258l7.848053 -0.42178345l0.7476196 13.823547q0.03375244 0.6240845 0.22816467 1.0361328q0.193573 0.39642334 0.5199585 0.64489746q0.32556152 0.23286438 0.7215271 0.32110596q0.39596558 0.088256836 0.80163574 0.06645203q0.4680786 -0.025146484 0.96229553 -0.14559937q0.5098114 -0.121276855 1.1204071 -0.40446472l1.0471344 2.869812q-0.53764343 0.18537903 -0.9825134 0.35011292q-0.44488525 0.16473389 -0.90789795 0.2835083q-0.44740295 0.11793518 -0.9597626 0.19241333q-0.5115051 0.09007263 -1.1199951 0.122787476q-2.543213 0.13667297 -3.9036255 -1.2923737q-1.3603973 -1.4290466 -1.4987946 -3.9878082l-0.5704193 -10.547089l-3.885025 0.20878601l-0.1687622 -3.1204376zm18.309357 13.740326q1.1942444 0.6712494 2.3880463 1.045227q1.1929779 0.35836792 2.5503845 0.28541565q1.3730164 -0.073791504 1.9498901 -0.4020996q0.5768585 -0.3283081 0.548172 -0.8587799q-0.03375244 -0.6240845 -1.0378113 -0.96131897q-1.0040588 -0.33721924 -2.651184 -0.70248413q-0.90283203 -0.201828 -1.7787018 -0.48335266q-0.86109924 -0.29797363 -1.557312 -0.72998047q-0.69706726 -0.44761658 -1.1512451 -1.0334625q-0.4550171 -0.6014404 -0.49890137 -1.4127502q-0.04978943 -0.9205322 0.32929993 -1.7232819q0.39466858 -0.80358887 1.1617126 -1.376831q0.7661896 -0.5888519 1.8882904 -0.96209717q1.1377106 -0.37409973 2.5731354 -0.45124817q1.7786865 -0.09559631 3.276535 0.40286255q1.4978638 0.49845886 2.5959625 1.127945l-1.6504211 2.4671173q-0.9500885 -0.4965973 -1.9524536 -0.80262756q-0.9867554 -0.30685425 -2.0321198 -0.2506714q-1.2638092 0.06791687 -1.7799377 0.36166382q-0.5161438 0.29374695 -0.4882965 0.80862427q0.016021729 0.29644775 0.2947693 0.53182983q0.2935028 0.2189331 0.7561035 0.38183594q0.4781952 0.16207886 1.1124268 0.31576538q0.6489868 0.13723755 1.3612213 0.2867279q1.0129089 0.21157837 1.9208069 0.50701904q0.9070587 0.27986145 1.6032867 0.7118683q0.69537354 0.4163971 1.1364746 1.0498962q0.44026184 0.6178894 0.48667908 1.4760132q0.04978943 0.92051697 -0.3448944 1.7241058q-0.3790741 0.80274963 -1.1739349 1.4400787q-0.79571533 0.6217346 -2.0097504 1.0312195q-1.1992645 0.39305115 -2.82193 0.48025513q-1.794281 0.09643555 -3.5582275 -0.4033661q-1.7483368 -0.50064087 -3.0905914 -1.3047638l1.644516 -2.576355z" fill-rule="nonzero"></path><path fill="#000000" fill-opacity="0.0" d="m25.8881 202.9282l167.3071 -11.464569l2.2992096 35.496063l-167.30708 11.464569z" fill-rule="nonzero"></path><path fill="#ffd200" d="m45.869434 203.93018l127.65025 -8.747116l2.16539 33.430176l-127.65024 8.747116l-2.1653976 -33.430176z" fill-rule="nonzero"></path><path fill="#ffffff" d="m48.484547 221.339q-0.14139938 -2.1829376 0.386631 -3.9419098q0.54361725 -1.760025 1.5892258 -3.0219574q1.0611992 -1.2630005 2.5494766 -1.9757996q1.5028572 -0.7294464 3.248764 -0.8490753q1.6991386 -0.11643982 3.053009 0.47990417q1.3538666 0.596344 2.2979584 1.3930359l-2.0238152 2.5975647q-0.65989685 -0.51860046 -1.4147758 -0.8114319q-0.7402992 -0.30949402 -1.6911926 -0.24433899q-0.93530655 0.06410217 -1.6894798 0.5073242q-0.7541733 0.4432068 -1.2990646 1.2166443q-0.5303116 0.7567749 -0.78899 1.8394928q-0.24410248 1.0660553 -0.15825272 2.3914185q0.17573547 2.713089 1.5041809 4.1255646q1.3440323 1.4114227 3.3393555 1.2746887q0.93530655 -0.064086914 1.6718712 -0.53741455q0.7511406 -0.4900055 1.3448181 -1.2354584l2.3379211 2.2516937q-2.0303154 2.7389526 -5.381832 2.9686127q-1.6991386 0.11642456 -3.2485886 -0.35687256q-1.5348701 -0.48997498 -2.7455444 -1.5346527q-1.1960945 -1.0613251 -1.9754753 -2.6993866q-0.76379395 -1.6391144 -0.9062004 -3.8376465zm16.306988 -5.8315735l9.306305 -0.6377106l0.8655548 13.362717l-3.959465 0.27131653l-0.66456604 -10.259827l-5.34684 0.36639404l-0.20098877 -3.10289zm7.0278397 -2.4549408q-1.1535416 0.07904053 -1.9431992 -0.50897217q-0.7750778 -0.60469055 -0.8467865 -1.7117462q-0.07170868 -1.1070557 0.6165085 -1.843338q0.70381165 -0.7373352 1.8573532 -0.81637573q1.1535492 -0.079055786 1.946228 0.55574036q0.79268646 0.63479614 0.86439514 1.7418671q0.07170868 1.1070557 -0.6341171 1.8132172q-0.7068329 0.69055176 -1.8603821 0.76960754zm11.685936 4.289261l-3.3671036 0.23072815l-0.19088745 -2.9469757l3.5440674 -0.39945984l0.28414154 -3.590332l3.2579803 -0.22325134l0.23027802 3.555069l5.6586075 -0.3877411l0.20098114 3.10289l-5.6586 0.38775635l0.30299377 4.677719q0.099983215 1.5436554 0.8116989 2.1370087q0.710701 0.57777405 2.160431 0.47842407q0.7950058 -0.054473877 1.4260559 -0.2230072q0.6300354 -0.18412781 1.208252 -0.44300842l0.88630676 2.8053436q-0.8713684 0.32595825 -1.9474106 0.63461304q-1.0760422 0.30867004 -2.3698807 0.3973236q-1.5744324 0.10787964 -2.7094955 -0.2528534q-1.1350555 -0.3607483 -1.8704376 -1.0777893q-0.7353821 -0.71702576 -1.1012497 -1.7725983q-0.3658676 -1.0555878 -0.45171356 -2.380951l-0.30501556 -4.708908zm12.758102 2.7122803q-0.108062744 -1.668396 0.3692932 -3.0010223q0.49193573 -1.349289 1.3852615 -2.3032074q0.8933258 -0.9539337 2.094513 -1.5060883q1.2001724 -0.5677643 2.5096054 -0.65748596q1.3250198 -0.090789795 2.5722275 0.30924988q1.2617874 0.38339233 2.2702484 1.2070007q1.0240555 0.8225403 1.6700745 2.0938416q0.66059875 1.2546539 0.7686691 2.92305q0.10907745 1.6839752 -0.38285828 3.0332642q-0.47735596 1.3326263 -1.3862686 2.2876282q-0.8933258 0.95391846 -2.0935059 1.5216827q-1.1856003 0.5510864 -2.5106125 0.6418762q-1.309433 0.08973694 -2.5712204 -0.2936554q-1.2627945 -0.39897156 -2.2712555 -1.22258q-1.0084686 -0.82362366 -1.6690674 -2.0782623q-0.6460266 -1.2713165 -0.75510406 -2.9552917zm4.0685883 -0.27879333q0.11412811 1.7619324 0.86667633 2.7440338q0.75154114 0.96650696 2.1233215 0.8725128q1.3873749 -0.095062256 2.0076141 -1.1555786q0.6192322 -1.0760956 0.5051117 -2.8380432q-0.11312103 -1.7463531 -0.8646622 -2.71286q-0.7525482 -0.98210144 -2.139923 -0.8870392q-1.3717804 0.0940094 -1.9910126 1.170105q-0.6202469 1.0605164 -0.50712585 2.8068695zm13.693291 7.7225647q0.52552795 0.13626099 1.0555344 0.09994507q1.1535416 -0.07904053 1.776947 -0.6072693q0.63899994 -0.5292969 0.9148483 -1.3469543l0.22055817 -0.70422363l-6.6266403 -12.623383l3.9282837 -0.2691803l2.6008224 5.585266q0.4347229 0.9099121 0.8277283 1.9009857q0.39300537 0.9910736 0.78803253 2.0133362l0.1091156 -0.0074768066q0.20137787 -1.0004883 0.4474945 -2.0353546q0.26171112 -1.0359497 0.49325562 -2.0541534l1.5924683 -5.8726044l3.756813 -0.25743103l-4.409836 13.865158q-0.40143585 1.2960968 -0.91659546 2.2867584q-0.49856567 1.005188 -1.1908264 1.6790924q-0.6756592 0.6884308 -1.6219406 1.0664978q-0.9296875 0.39260864 -2.1923523 0.47912598q-0.59236145 0.04058838 -1.110817 0.013473511q-0.51846313 -0.027114868 -0.94844055 -0.13861084l0.50554657 -3.072998l0 0zm14.368919 -9.645508q-0.106048584 -1.637207 0.38690186 -2.9709015q0.49293518 -1.3336945 1.4008484 -2.3042908q0.92349243 -0.97164917 2.1392517 -1.5404663q1.2157745 -0.56881714 2.5719604 -0.6617584q1.5276794 -0.10467529 2.7436981 0.2975006q1.2160339 0.40219116 2.0520172 1.2219543q0.8505554 0.8031006 1.3160248 1.9458313q0.48104858 1.1416626 0.5699158 2.513794q0.035354614 0.5457306 0.019897461 1.0323029q-0.015457153 0.48657227 -0.061645508 0.7403259l-8.994537 0.61634827q0.3162079 1.4975128 1.4498138 2.0776215q1.1336212 0.58010864 2.6145172 0.47862244q0.9197235 -0.0630188 1.7161865 -0.33685303q0.81103516 -0.29051208 1.6692657 -0.8191681l1.4483795 2.2969818q-1.091507 0.79522705 -2.4671936 1.3123627q-1.3601074 0.5160675 -2.7162933 0.60899353q-1.5588531 0.10682678 -2.945343 -0.26802063q-1.3719177 -0.39149475 -2.4281464 -1.2274933q-1.0562439 -0.83599854 -1.7158356 -2.075058q-0.66059875 -1.2546539 -0.76968384 -2.9386292zm9.555328 -2.1112976q-0.07272339 -1.1226654 -0.7417145 -1.781601q-0.6689911 -0.6589203 -2.0407715 -0.56492615q-1.075592 0.07369995 -1.8769684 0.7550812q-0.7868042 0.6647186 -0.96798706 1.9770508l5.6274414 -0.38560486zm6.420746 -5.6866302l3.2424011 -0.22218323l0.41131592 1.7572479l0.1091156 -0.0074920654q0.80181885 -0.9163208 1.8681946 -1.61586q1.0819702 -0.7006073 2.5940552 -0.80422974q2.2603302 -0.15487671 3.3996887 1.2392426q1.1539459 1.3774567 1.3175507 3.9034271l0.5342865 8.248398l-3.9594727 0.27131653l-0.50094604 -7.733841q-0.08685303 -1.3409576 -0.56373596 -1.9347382q-0.46128845 -0.5948639 -1.5680542 -0.51901245q-0.8106079 0.055541992 -1.3953247 0.4558258q-0.5857239 0.38468933 -1.2417603 1.1344147l0.577713 8.918884l-3.9594727 0.27131653l-0.8655548 -13.362717zm17.827393 7.9717712q1.2010193 0.6538086 2.3984222 1.0102844q1.1964111 0.34088135 2.552597 0.24794006q1.3717957 -0.09399414 1.9449615 -0.43084717q0.5731659 -0.33683777 0.5388336 -0.86698914q-0.040405273 -0.623703 -1.0477295 -0.94621277q-1.007309 -0.32250977 -2.6578064 -0.66360474q-0.9046936 -0.18858337 -1.7832642 -0.4572754q-0.8639984 -0.2853546 -1.5646057 -0.7071991q-0.7016144 -0.43743896 -1.1618958 -1.0166931q-0.46128845 -0.5948639 -0.51379395 -1.4056702q-0.05960083 -0.9199524 0.31079102 -1.7284088q0.38598633 -0.8095398 1.1466522 -1.3941498q0.7596588 -0.6002197 1.8774109 -0.99005127q1.1333466 -0.3908844 2.5674896 -0.48916626q1.7770844 -0.12176514 3.27977 0.3547516q1.5026855 0.47650146 2.607132 1.0899353l-1.6235657 2.4918213q-0.95506287 -0.4827118 -1.9603729 -0.77404785q-0.9897156 -0.29238892 -2.034134 -0.2208252q-1.2626648 0.086517334 -1.7754974 0.38790894q-0.5128479 0.3013916 -0.47950745 0.8159485q0.019180298 0.2962494 0.300354 0.52757263q0.2957306 0.21466064 0.7599182 0.37078857q0.47976685 0.15505981 1.1154327 0.29945374q0.65023804 0.12771606 1.3638306 0.26675415q1.0148315 0.19670105 1.9255981 0.47885132q0.90974426 0.2665558 1.6103516 0.68840027q0.69958496 0.40625 1.1473083 1.0333557q0.4467163 0.61151123 0.5022583 1.469101q0.05958557 0.9199524 -0.3263855 1.7294922q-0.37039185 0.8084564 -1.1582031 1.4575806q-0.78881836 0.63352966 -1.9980774 1.0609589q-1.1946869 0.41075134 -2.8158875 0.5218506q-1.7926788 0.12283325 -3.5613708 -0.35110474q-1.7531128 -0.4750061 -3.1035156 -1.2595367l1.6165009 -2.6009674z" fill-rule="nonzero"></path></g></svg>

